<svg xmlns="http://www.w3.org/2000/svg" width="98.508" height="98.007" viewBox="0 0 98.508 98.007"><defs><style>.a{fill:#1c1c1c;}</style></defs><path class="a" d="M98.508,25.592v4.179l-28.137,1.16V98.007H66.195V72.875h-42.7V98.007H19.318V72.875H0V68.7H66.195V31.1L0,33.831V29.652l75.627-3.117V.874H79.8V26.363ZM8.8,11.818,3.093.343,3.076.307H.208V20.079H4.021V8.568L9.729,20.043l.018.036h2.868V.307H8.8Zm7.672,8.261H27.652V16.572H20.287V11.946h5.831V8.44H20.287V3.814h7.366V.307H16.473Zm15.653,0h3.813V.307H32.126ZM46,0a6.381,6.381,0,0,0-4.649,1.538A5.887,5.887,0,0,0,39.8,5.9v8.593a5.886,5.886,0,0,0,1.554,4.358A6.379,6.379,0,0,0,46,20.386a6.38,6.38,0,0,0,4.649-1.538A5.886,5.886,0,0,0,52.2,14.489V9.821H45.936v3.507h2.454V14.8c0,1.4-.781,2.083-2.389,2.083s-2.39-.681-2.39-2.083V5.59c0-1.4.782-2.083,2.39-2.083s2.389.681,2.389,2.083v.894H52.2V5.9a5.889,5.889,0,0,0-1.553-4.359A6.383,6.383,0,0,0,46,0M64.043.307v7.98H59.264V.307H55.45V20.079h3.814V11.793h4.779v8.286h3.814V.307Zm-37.2,41.8A5.886,5.886,0,0,1,28.4,46.465v8.593a5.888,5.888,0,0,1-1.553,4.359,6.381,6.381,0,0,1-4.649,1.538,6.378,6.378,0,0,1-4.649-1.538,5.886,5.886,0,0,1-1.554-4.359V46.465a5.883,5.883,0,0,1,1.554-4.358,6.38,6.38,0,0,1,4.649-1.538,6.383,6.383,0,0,1,4.649,1.538m-2.26,4.051c0-1.4-.782-2.082-2.39-2.082s-2.391.681-2.391,2.082v9.208c0,1.4.782,2.083,2.391,2.083s2.39-.682,2.39-2.083ZM12.744,54.752a5.886,5.886,0,0,1-1.553,4.358,6.38,6.38,0,0,1-4.649,1.538H.337V40.876H6.081a6.38,6.38,0,0,1,4.649,1.538,5.883,5.883,0,0,1,1.554,4.358,5.013,5.013,0,0,1-1.4,3.8,4.823,4.823,0,0,1,1.865,4.181m-8.593-5.59h1.93c1.608,0,2.389-.681,2.389-2.083v-.614c0-1.4-.781-2.083-2.389-2.083H4.151ZM8.93,54.445c0-1.4-.781-2.083-2.389-2.083H4.151v4.78h2.39c1.608,0,2.389-.681,2.389-2.084Zm47.351-2.453,2.805,7.056v1.6H55.6l-3.038-7.979H50.494v7.979H46.68V40.876h6.2a6.383,6.383,0,0,1,4.649,1.538,5.886,5.886,0,0,1,1.553,4.358c0,2.568-.944,4.323-2.805,5.22m-1.007-5.526c0-1.4-.782-2.083-2.39-2.083h-2.39v4.78h2.39c1.608,0,2.39-.681,2.39-2.083Zm-15.652,8.9c0,1.4-.782,2.083-2.39,2.083s-2.39-.682-2.39-2.083V40.876H31.028V55.058a5.886,5.886,0,0,0,1.554,4.359,6.378,6.378,0,0,0,4.649,1.538,6.38,6.38,0,0,0,4.649-1.538,5.888,5.888,0,0,0,1.553-4.359V40.876H39.621ZM96.93,80.751a5.884,5.884,0,0,1-4.358,1.554H83.979a5.885,5.885,0,0,1-4.358-1.554A6.381,6.381,0,0,1,78.083,76.1a6.38,6.38,0,0,1,1.538-4.649A5.884,5.884,0,0,1,83.979,69.9h8.594a5.884,5.884,0,0,1,4.358,1.554A6.38,6.38,0,0,1,98.468,76.1a6.381,6.381,0,0,1-1.538,4.649m-4.051-2.26c1.4,0,2.083-.781,2.083-2.39s-.681-2.389-2.083-2.389H83.672c-1.4,0-2.084.781-2.084,2.389s.681,2.39,2.084,2.39Zm-2.7-31.3v-4.78h7.98V38.595H78.39v3.814h8.286v4.78H78.39V51H98.162V47.188ZM96.93,65.1a5.884,5.884,0,0,1-4.358,1.554H83.979A5.885,5.885,0,0,1,79.621,65.1a6.38,6.38,0,0,1-1.538-4.649A6.38,6.38,0,0,1,79.621,55.8a5.884,5.884,0,0,1,4.358-1.554h8.594A5.884,5.884,0,0,1,96.93,55.8a6.38,6.38,0,0,1,1.538,4.649A6.38,6.38,0,0,1,96.93,65.1m-4.051-2.26c1.4,0,2.083-.782,2.083-2.389s-.681-2.39-2.083-2.39H83.672c-1.4,0-2.084.781-2.084,2.39s.681,2.389,2.084,2.389Zm-.614,35.117h-7.98A5.887,5.887,0,0,1,79.928,96.4a6.381,6.381,0,0,1-1.538-4.649v-6.2H98.162v6.2A6.379,6.379,0,0,1,96.623,96.4a5.886,5.886,0,0,1-4.358,1.553m.307-3.813c1.4,0,2.083-.782,2.083-2.39v-2.39H81.9v2.39c0,1.608.681,2.39,2.083,2.39Z"/></svg>